<?xml version="1.0" encoding="iso-8859-1"?>
<!-- Generator: Adobe Illustrator 19.0.0, SVG Export Plug-In . SVG Version: 6.00 Build 0)  -->
<svg version="1.1" id="Capa_1" xmlns="http://www.w3.org/2000/svg" xmlns:xlink="http://www.w3.org/1999/xlink" x="0px" y="0px"
	 viewBox="0 0 512 512" style="enable-background:new 0 0 512 512;" xml:space="preserve">
<rect x="35.894" y="196.229" style="fill:#707487;" width="440.213" height="263.02"/>
<rect x="448.259" y="196.229" style="fill:#606575;" width="27.842" height="263.02"/>
<path style="fill:#BC0F0F;" d="M499.508,196.231H12.493c-2.765,0-5.006-2.241-5.006-5.006v-34.412c0-2.765,2.241-5.006,5.006-5.006
	h487.016c2.765,0,5.006,2.241,5.006,5.006v34.412C504.513,193.989,502.272,196.231,499.508,196.231z"/>
<path style="fill:#A80505;" d="M499.508,196.231h-22.103v-44.425h22.103c2.765,0,5.006,2.241,5.006,5.006v34.412
	C504.513,193.989,502.272,196.231,499.508,196.231z"/>
<path style="fill:#FF9300;" d="M415.715,405.123h-37.932c-2.756,0-4.991-2.235-4.991-4.991V384.16c0-2.756,2.235-4.991,4.991-4.991
	h37.932c2.756,0,4.991,2.235,4.991,4.991v15.971C420.706,402.889,418.471,405.123,415.715,405.123z"/>
<path style="fill:#E57E03;" d="M415.715,405.123h-10.117v-25.954h10.117c2.756,0,4.991,2.235,4.991,4.991v15.971
	C420.706,402.889,418.471,405.123,415.715,405.123z"/>
<path style="fill:#BC0F0F;" d="M430.473,312.289h-67.447c-9.074,0-16.43-7.356-16.43-16.43l0,0c0-9.074,7.356-16.43,16.43-16.43
	h67.447c9.074,0,16.43,7.356,16.43,16.43l0,0C446.902,304.933,439.546,312.289,430.473,312.289z"/>
<path style="fill:#A80505;" d="M446.899,295.858c0,4.532-1.837,8.645-4.811,11.619c-2.975,2.975-7.087,4.811-11.619,4.811h-21.292
	c4.542,0,8.645-1.837,11.619-4.811c2.975-2.975,4.811-7.087,4.811-11.619c0-9.074-7.357-16.431-16.431-16.431h21.292
	C439.543,279.428,446.899,286.784,446.899,295.858z"/>
<rect x="382.776" y="312.292" style="fill:#E2EEFD;" width="27.95" height="66.88"/>
<rect x="396.751" y="312.292" style="fill:#C7DCF2;" width="13.975" height="66.88"/>
<rect x="382.776" y="405.126" style="fill:#E2EEFD;" width="27.95" height="54.123"/>
<rect x="396.751" y="405.126" style="fill:#C7DCF2;" width="13.975" height="54.123"/>
<path style="fill:#FF9300;" d="M274.967,405.123h-37.932c-2.756,0-4.991-2.235-4.991-4.991V384.16c0-2.756,2.235-4.991,4.991-4.991
	h37.932c2.756,0,4.991,2.235,4.991,4.991v15.971C279.958,402.889,277.723,405.123,274.967,405.123z"/>
<path style="fill:#E57E03;" d="M274.967,405.123H264.85v-25.954h10.117c2.756,0,4.991,2.235,4.991,4.991v15.971
	C279.958,402.889,277.723,405.123,274.967,405.123z"/>
<path style="fill:#BC0F0F;" d="M289.724,312.289h-67.447c-9.074,0-16.43-7.356-16.43-16.43l0,0c0-9.074,7.356-16.43,16.43-16.43
	h67.447c9.074,0,16.43,7.356,16.43,16.43l0,0C306.154,304.933,298.798,312.289,289.724,312.289z"/>
<path style="fill:#A80505;" d="M306.151,295.858c0,4.532-1.837,8.645-4.811,11.619s-7.087,4.811-11.619,4.811h-21.292
	c4.542,0,8.645-1.837,11.619-4.811c2.975-2.975,4.811-7.087,4.811-11.619c0-9.074-7.357-16.431-16.431-16.431h21.292
	C298.794,279.428,306.151,286.784,306.151,295.858z"/>
<rect x="242.027" y="312.292" style="fill:#E2EEFD;" width="27.95" height="66.88"/>
<rect x="256.003" y="312.292" style="fill:#C7DCF2;" width="13.975" height="66.88"/>
<rect x="242.027" y="405.126" style="fill:#E2EEFD;" width="27.95" height="54.123"/>
<rect x="256.003" y="405.126" style="fill:#C7DCF2;" width="13.975" height="54.123"/>
<path style="fill:#FF9300;" d="M134.218,405.123H96.286c-2.756,0-4.991-2.235-4.991-4.991V384.16c0-2.756,2.235-4.991,4.991-4.991
	h37.932c2.756,0,4.991,2.235,4.991,4.991v15.971C139.209,402.889,136.974,405.123,134.218,405.123z"/>
<path style="fill:#E57E03;" d="M134.218,405.123h-10.117v-25.954h10.117c2.756,0,4.991,2.235,4.991,4.991v15.971
	C139.209,402.889,136.974,405.123,134.218,405.123z"/>
<path style="fill:#BC0F0F;" d="M148.976,312.289H81.527c-9.074,0-16.43-7.356-16.43-16.43l0,0c0-9.074,7.356-16.43,16.43-16.43
	h67.447c9.074,0,16.43,7.356,16.43,16.43l0,0C165.405,304.933,158.05,312.289,148.976,312.289z"/>
<path style="fill:#A80505;" d="M165.402,295.858c0,4.532-1.837,8.645-4.811,11.619s-7.087,4.811-11.619,4.811H127.68
	c4.542,0,8.645-1.837,11.619-4.811c2.975-2.975,4.811-7.087,4.811-11.619c0-9.074-7.357-16.431-16.431-16.431h21.292
	C158.046,279.428,165.402,286.784,165.402,295.858z"/>
<rect x="101.279" y="312.292" style="fill:#E2EEFD;" width="27.95" height="66.88"/>
<rect x="115.254" y="312.292" style="fill:#C7DCF2;" width="13.975" height="66.88"/>
<rect x="101.279" y="405.126" style="fill:#E2EEFD;" width="27.95" height="54.123"/>
<rect x="115.254" y="405.126" style="fill:#C7DCF2;" width="13.975" height="54.123"/>
<path style="fill:#FF9300;" d="M138.141,94.55V57.744c0-2.756-2.235-4.991-4.991-4.991h-13.574h-13.574
	c-2.756,0-4.991,2.235-4.991,4.991V94.55c0,0-0.002,0.208,0.008,0.59c0.596,24.07,36.518,24.07,37.114,0
	C138.143,94.758,138.141,94.55,138.141,94.55z"/>
<path style="fill:#E57E03;" d="M133.152,52.753c2.756,0,4.991,2.235,4.991,4.991v36.804c0,0,0,0.21-0.01,0.599
	c-0.379,15.313-15.063,20.883-25.844,16.7c6.159-2.386,11.05-7.956,11.27-16.7c0.01-0.389,0.01-0.599,0.01-0.599V52.753
	C123.569,52.753,133.152,52.753,133.152,52.753z"/>
<path style="fill:#FF9300;" d="M274.564,94.55V57.744c0-2.756-2.235-4.991-4.991-4.991H256h-13.574
	c-2.756,0-4.991,2.235-4.991,4.991V94.55c0,0-0.002,0.208,0.008,0.59c0.596,24.07,36.518,24.07,37.114,0
	C274.565,94.758,274.564,94.55,274.564,94.55z"/>
<path style="fill:#E57E03;" d="M269.575,52.753c2.756,0,4.991,2.235,4.991,4.991v36.804c0,0,0,0.21-0.01,0.599
	c-0.379,15.313-15.063,20.883-25.844,16.7c6.159-2.386,11.05-7.956,11.27-16.7c0.01-0.389,0.01-0.599,0.01-0.599V52.753
	C259.992,52.753,269.575,52.753,269.575,52.753z"/>
<path style="fill:#FF9300;" d="M410.987,94.55V57.744c0-2.756-2.235-4.991-4.991-4.991h-13.574h-13.574
	c-2.756,0-4.991,2.235-4.991,4.991V94.55c0,0-0.002,0.208,0.008,0.59c0.596,24.07,36.518,24.07,37.114,0
	C410.989,94.758,410.987,94.55,410.987,94.55z"/>
<path style="fill:#E57E03;" d="M405.997,52.753c2.756,0,4.991,2.235,4.991,4.991v36.804c0,0,0,0.21-0.01,0.599
	c-0.379,15.313-15.063,20.883-25.844,16.7c6.159-2.386,11.05-7.956,11.27-16.7c0.01-0.389,0.01-0.599,0.01-0.599V52.753
	C396.415,52.753,405.997,52.753,405.997,52.753z"/>
<path d="M499.507,144.32h-99.599v-24.677c9.82-2.754,18.224-10.989,18.555-24.322c0.011-0.44,0.011-0.715,0.01-0.798v-36.78
	c0-6.881-5.597-12.478-12.478-12.478h-27.147c-6.881,0-12.478,5.597-12.478,12.478V94.48c0,0-0.004,0.299,0.01,0.845
	c0.329,13.33,8.734,21.564,18.554,24.318v24.677H263.486v-24.677c9.82-2.754,18.224-10.989,18.555-24.322
	c0.011-0.44,0.011-0.715,0.01-0.798v-36.78c0-6.881-5.597-12.478-12.478-12.478h-27.147c-6.881,0-12.478,5.597-12.478,12.478v36.753
	c0,0-0.003,0.289,0.01,0.828c0.33,13.33,8.734,21.564,18.555,24.318v24.677h-121.45v-24.677c9.82-2.754,18.224-10.987,18.554-24.312
	c0.011-0.437,0.011-0.716,0.01-0.812V57.744c0-6.881-5.597-12.478-12.478-12.478h-27.147c-6.881,0-12.478,5.597-12.478,12.478
	v36.753c0,0-0.003,0.289,0.01,0.828c0.33,13.33,8.734,21.564,18.555,24.318v24.677H12.493C5.605,144.319,0,149.923,0,156.812v34.413
	c0,6.888,5.604,12.493,12.493,12.493h15.915v255.529c0,4.136,3.352,7.487,7.487,7.487h65.383h27.95h112.798h27.95h112.798h27.95
	h65.383c4.135,0,7.487-3.351,7.487-7.487v-42.465c0-4.136-3.352-7.487-7.487-7.487c-4.135,0-7.487,3.351-7.487,7.487v34.979h-50.41
	v-39.403c5.689-1.159,9.982-6.2,9.982-12.226V384.16c0-6.026-4.293-11.067-9.982-12.226v-52.159h12.262
	c13.187,0,23.916-10.729,23.916-23.916c0-13.187-10.729-23.916-23.916-23.916h-67.447c-13.187,0-23.916,10.729-23.916,23.916
	c0,13.187,10.729,23.916,23.916,23.916h12.262v52.159c-5.689,1.159-9.982,6.2-9.982,12.226v15.971
	c0,6.026,4.293,11.067,9.982,12.226v39.403h-97.825v-39.403c5.689-1.159,9.982-6.2,9.982-12.226V384.16
	c0-6.026-4.293-11.067-9.982-12.226v-52.159h12.262c13.187,0,23.916-10.729,23.916-23.916c0-13.187-10.729-23.916-23.916-23.916
	h-67.447c-13.187,0-23.916,10.729-23.916,23.916c0,13.187,10.729,23.916,23.916,23.916h12.262v52.159
	c-5.689,1.159-9.982,6.2-9.982,12.226v15.971c0,6.026,4.293,11.067,9.982,12.226v39.403h-97.825v-39.403
	c5.689-1.159,9.982-6.2,9.982-12.226V384.16c0-6.026-4.293-11.067-9.982-12.226v-52.159h12.262
	c13.187,0,23.916-10.729,23.916-23.916c0-13.187-10.729-23.916-23.916-23.916H81.527c-13.187,0-23.916,10.729-23.916,23.916
	c0,13.187,10.729,23.916,23.916,23.916h12.262v52.159c-5.689,1.159-9.982,6.2-9.982,12.226v15.971
	c0,6.026,4.293,11.067,9.982,12.226v39.403h-50.41V203.718h101.069c4.135,0,7.487-3.351,7.487-7.487s-3.352-7.487-7.487-7.487
	H14.973v-29.451h482.054v29.451H191.781c-4.135,0-7.487,3.351-7.487,7.487s3.352,7.487,7.487,7.487H468.62v166.148
	c0,4.136,3.352,7.487,7.487,7.487c4.135,0,7.487-3.351,7.487-7.487V203.718h15.915c6.888,0,12.493-5.604,12.493-12.493v-34.413
	C512,149.924,506.396,144.32,499.507,144.32z M403.237,451.761h-12.977V412.61h12.977V451.761z M413.22,397.636h-2.496h-27.95
	h-2.496v-10.98h2.496h27.95h2.496V397.636z M390.261,371.683v-51.907h12.977v51.907H390.261z M363.024,304.802
	c-4.931,0-8.943-4.012-8.943-8.943c0-4.931,4.012-8.943,8.943-8.943h67.447c4.931,0,8.943,4.012,8.943,8.943
	c0,4.931-4.012,8.943-8.943,8.943h-19.749h-27.95H363.024z M262.489,451.761h-12.977V412.61h12.977V451.761z M272.471,397.636
	h-2.496h-27.95h-2.496v-10.98h2.496h27.95h2.496V397.636z M249.512,371.683v-51.907h12.977v51.907H249.512z M222.276,304.802
	c-4.931,0-8.943-4.012-8.943-8.943c0-4.931,4.012-8.943,8.943-8.943h67.447c4.931,0,8.943,4.012,8.943,8.943
	c0,4.931-4.012,8.943-8.943,8.943h-19.749h-27.95H222.276z M121.74,451.761h-12.977V412.61h12.977V451.761z M131.723,397.636h-2.496
	h-27.95h-2.496v-10.98h2.496h27.95h2.496V397.636z M108.764,371.683v-51.907h12.977v51.907H108.764z M81.527,304.802
	c-4.931,0-8.943-4.012-8.943-8.943c0-4.931,4.012-8.943,8.943-8.943h67.447c4.931,0,8.943,4.012,8.943,8.943
	c0,4.931-4.012,8.943-8.943,8.943h-19.749h-27.95H81.527z M108.504,94.958l-0.006-34.719h22.156V94.55c0,0.007,0,0.039,0,0.046
	l-0.005,0.358c-0.197,7.935-6.088,10.752-11.072,10.752C114.591,105.706,108.701,102.891,108.504,94.958z M244.926,94.958
	l-0.006-34.719h22.156V94.55c0,0.005,0,0.029,0,0.033l-0.005,0.371c-0.197,7.935-6.088,10.752-11.073,10.752
	S245.123,102.89,244.926,94.958z M381.349,94.949l-0.005-34.709h22.156v34.311c0,0.005,0,0.029,0,0.033l-0.005,0.371
	c-0.197,7.936-6.088,10.752-11.073,10.752C387.437,105.706,381.546,102.891,381.349,94.949z"/>
<g>
</g>
<g>
</g>
<g>
</g>
<g>
</g>
<g>
</g>
<g>
</g>
<g>
</g>
<g>
</g>
<g>
</g>
<g>
</g>
<g>
</g>
<g>
</g>
<g>
</g>
<g>
</g>
<g>
</g>
</svg>
