<?xml version="1.0" encoding="iso-8859-1"?>
<!-- Generator: Adobe Illustrator 19.0.0, SVG Export Plug-In . SVG Version: 6.00 Build 0)  -->
<svg version="1.1" id="Capa_1" xmlns="http://www.w3.org/2000/svg" xmlns:xlink="http://www.w3.org/1999/xlink" x="0px" y="0px"
	 viewBox="0 0 512 512" style="enable-background:new 0 0 512 512;" xml:space="preserve">
<path style="fill:#FFFFFF;" d="M197.265,165.647c-30.677-7.284-53.496-34.86-53.496-67.765c0-38.465,31.182-69.647,69.647-69.647
	c5.276,0,10.406,0.606,15.346,1.717c8.715-13.487,23.871-22.423,41.125-22.423c23.817,0,43.651,17.016,48.032,39.553
	c0.303-0.006,0.604-0.023,0.91-0.023c27.03,0,48.941,21.912,48.941,48.941v30.118h-15.216c-11.348,0-20.548,9.2-20.548,20.548
	v34.982c0,9.877-8.006,17.882-17.882,17.882l0,0c-9.877,0-17.882-8.006-17.882-17.882v-34.982c0-11.348-9.2-20.548-20.548-20.548
	H200.24L197.265,165.647z"/>
<path style="fill:#B9ECFF;" d="M166.357,114.824c0-38.465,31.182-69.647,69.647-69.647c5.276,0,10.406,0.606,15.346,1.717
	c8.715-13.488,23.872-22.423,41.125-22.423c5.9,0,11.554,1.047,16.791,2.961c-8.911-12.068-23.225-19.902-39.379-19.902
	c-17.253,0-32.41,8.936-41.125,22.423c-4.939-1.111-10.07-1.717-15.346-1.717c-38.465,0-69.647,31.182-69.647,69.647
	c0,27.884,16.389,51.935,40.057,63.06C172.96,148.658,166.357,132.515,166.357,114.824z"/>
<path style="fill:#F48D24;" d="M367.769,126.118L345.18,504.471h-128l-22.588-378.353h82.822c8.318,0,15.061,6.743,15.061,15.061
	v35.763c0,10.396,8.428,18.824,18.824,18.824l0,0c10.396,0,18.824-8.428,18.824-18.824v-35.763c0-8.317,6.743-15.061,15.061-15.061
	H367.769z"/>
<path style="fill:#FFBF28;" d="M311.746,399.259c-0.709,0.232-1.419,0.45-2.13,0.657c-33.681,9.757-67.575-15.045-69.665-50.048
	l-13.358-223.748h-32l15.384,257.683l-0.325,0.2c0.132,0.528,0.286,1.046,0.431,1.569l7.099,118.901h32l-4.57-76.542
	c10.428,5.616,22.264,8.777,34.426,8.777h6.656c30.816,0,57.961-20.268,66.718-49.815l0.299-1.009L311.746,399.259z"/>
<path style="fill:#F48D24;" d="M249.712,504.973h-33.005l-0.028-0.472l-7.095-118.847l-0.114-0.408
	c-0.105-0.373-0.212-0.747-0.306-1.124l-0.088-0.356l0.382-0.235L194.06,125.616h33.005l0.028,0.472l13.358,223.749
	c1.005,16.826,9.492,32.06,23.287,41.795c13.438,9.485,30.108,12.33,45.738,7.801c0.706-0.205,1.41-0.422,2.113-0.651l41.874-13.673
	l-0.57,1.926c-4.328,14.601-13.065,27.135-25.267,36.246c-12.203,9.112-26.703,13.927-41.933,13.927h-6.656
	c-11.651,0-23.342-2.907-33.872-8.416L249.712,504.973z M217.653,503.969h30.995l-4.592-76.908l0.793,0.427
	c10.588,5.703,22.41,8.717,34.189,8.717h6.656c15.011,0,29.302-4.748,41.331-13.728c12.027-8.98,20.641-21.334,24.905-35.727
	l0.027-0.092l-40.055,13.079c-0.713,0.233-1.43,0.454-2.146,0.662c-15.923,4.614-32.905,1.717-46.596-7.945
	c-14.045-9.913-22.688-25.423-23.71-42.556l-13.329-223.276h-30.995l15.371,257.451l-0.265,0.164
	c0.065,0.247,0.136,0.493,0.205,0.738l0.148,0.567L217.653,503.969z"/>
<path style="fill:#FFFFFF;" d="M345.18,502.588H209.651v-97.882l27.419,19.482c26.129,18.566,61.385,17.624,86.486-2.309
	l21.624-17.173V502.588z"/>
<rect x="219.066" y="464.936" style="fill:#B9ECFF;" width="126.113" height="37.647"/>
<rect x="239.767" y="459.294" width="15.059" height="15.059"/>
<path d="M300.004,60.235h-15.059c0-8.303-6.755-15.059-15.059-15.059V30.118C286.493,30.118,300.004,43.628,300.004,60.235z"/>
<path d="M179.533,92.235h-15.059c0-25.948,21.11-47.059,47.059-47.059v15.059C193.888,60.235,179.533,74.59,179.533,92.235z"/>
<g>
	<rect x="217.178" y="158.118" style="fill:#FFFFFF;" width="15.059" height="15.059"/>
	<rect x="232.237" y="173.176" style="fill:#FFFFFF;" width="15.059" height="45.176"/>
	<rect x="277.414" y="218.353" style="fill:#FFFFFF;" width="15.059" height="22.588"/>
	<rect x="307.531" y="240.941" style="fill:#FFFFFF;" width="15.059" height="15.059"/>
	<rect x="247.296" y="271.059" style="fill:#FFFFFF;" width="15.059" height="37.647"/>
	<rect x="262.355" y="308.706" style="fill:#FFFFFF;" width="15.059" height="15.059"/>
</g>
<path d="M375.761,118.588h-30.578c-12.456,0-22.59,10.134-22.59,22.59v35.763c0,6.227-5.067,11.294-11.294,11.294
	s-11.294-5.067-11.294-11.294v-35.763c0-12.457-10.135-22.59-22.59-22.59H186.6l2.17,36.353
	c-22.505-9.649-37.472-31.802-37.472-57.059c0-34.252,27.866-62.118,62.118-62.118c4.563,0,9.17,0.516,13.695,1.534l5.124,1.153
	l2.852-4.413c7.678-11.884,20.688-18.979,34.8-18.979c19.78,0,36.872,14.072,40.64,33.46l1.206,6.203l6.319-0.111l0.776-0.022
	c22.834,0,41.412,18.578,41.412,41.412h15.059c0-29.452-22.666-53.711-51.469-56.251C316.605,16.392,294.81,0,269.886,0
	c-17.513,0-33.778,8.007-44.451,21.655c-3.993-0.63-8.017-0.949-12.02-0.949c-42.555,0-77.176,34.621-77.176,77.176
	c0,33.905,21.723,63.306,53.511,73.473l12.801,214.42l-0.206,0.051c0.081,0.326,0.181,0.647,0.266,0.972L210.088,512h142.186
	l7.339-122.913c0.005-0.019,0.012-0.037,0.018-0.056l0.299-1.009l-0.249-0.073L375.761,118.588z M224.273,496.941l-4.727-79.185
	c14.72,16.287,36.328,26.479,59.491,26.479h6.659c16.755,0,32.71-5.299,46.135-15.324c3.984-2.975,7.623-6.288,10.908-9.887
	l-2.404,40.269h-70.448v15.059h69.55l-1.348,22.588H224.273z M344.691,386.318c-8.247,25.314-32.265,42.858-58.995,42.858h-6.659
	c-28.382,0-53.864-18.725-61.486-44.832l-14.967-250.697h74.829c4.153,0,7.531,3.378,7.531,7.531v35.763
	c0,14.531,11.821,26.353,26.353,26.353s26.353-11.822,26.353-26.353v-35.763c0-4.153,3.378-7.531,7.531-7.531h14.594
	L344.691,386.318z"/>
<g>
</g>
<g>
</g>
<g>
</g>
<g>
</g>
<g>
</g>
<g>
</g>
<g>
</g>
<g>
</g>
<g>
</g>
<g>
</g>
<g>
</g>
<g>
</g>
<g>
</g>
<g>
</g>
<g>
</g>
</svg>
